<svg xmlns="http://www.w3.org/2000/svg" width="128" height="128" viewBox="0 0 128 128" role="img" aria-label="上衣"><title>上衣</title><g stroke="#56443F" stroke-width="3.5" stroke-linecap="round" stroke-linejoin="round" fill="none"><path d="M47 23 34 27Q23 28 18 43l-4 10 17 10 10-12 5 25-10 27q28 9 56 0L82 76l5-25 10 12 17-10-4-10q-5-15-16-16l-13-4Z" fill="#F6BB73"/><path d="M47 23q17 20 34 0l-6 22-11-8-11 8Z" fill="#FFF4DD"/><path d="M64 38v33M19 47l15 9m60 0 15-9"/><path d="M46 73h36v9H46Z" fill="#FFE0A7"/><path d="m64 78-12-7q-5 7 0 14Zm0 0 12-7q5 7 0 14Z" fill="#FFF4DD"/><circle cx="64" cy="78" r="3" fill="#FFF4DD"/><path d="m54 88-4 11m24-11 4 11"/><path d="m46 48 3 15" stroke="#FFE4B7" stroke-width="5"/></g></svg>
